<svg width="32" height="31" viewBox="0 0 32 31" fill="none" xmlns="http://www.w3.org/2000/svg">
<path d="M16 0L9.968 3.77893H4.8V6.9814L1.552 9.047C0.624 9.60744 0 10.6162 0 11.7851V27.7975C0 28.6469 0.337142 29.4614 0.937258 30.062C1.53737 30.6626 2.35131 31 3.2 31H28.8C30.576 31 32 29.5749 32 27.7975V11.7851C32 10.6162 31.376 9.60744 30.448 9.047L27.2 6.9814V3.77893H22.032M8 6.9814H24V14.7955L16 19.7913L8 14.7955M9.6 8.58264V10.9845H22.4V8.58264M4.8 10.7924V12.7939L3.2 11.7851M27.2 10.7924L28.8 11.7851L27.2 12.7939M9.6 12.5857V14.9876H22.4V12.5857H9.6Z" fill="black"/>
</svg>
